<?xml version="1.0" encoding="utf-8"?>
<!-- Generator: Adobe Illustrator 26.0.1, SVG Export Plug-In . SVG Version: 6.00 Build 0)  -->
<svg version="1.1" id="Layer_1" xmlns="http://www.w3.org/2000/svg" xmlns:xlink="http://www.w3.org/1999/xlink" x="0px" y="0px"
	 viewBox="0 0 612 792" style="enable-background:new 0 0 612 792;" xml:space="preserve">
<style type="text/css">
	.st0{fill:none;stroke:#FFFFFF;stroke-width:16;stroke-linecap:round;stroke-miterlimit:10;}
	.st1{fill:none;stroke:#000000;stroke-width:2;stroke-miterlimit:10;}
	.st2{fill:#FFFFFF;stroke:#FFFFFF;stroke-width:16;stroke-miterlimit:10;}
	.st3{fill:#FFFFFF;stroke:#FFFFFF;stroke-width:0.75;stroke-miterlimit:10;}
	.st4{fill:#FFFFFF;stroke:#FFFFFF;stroke-miterlimit:10;}
	.st5{font-family:'MyriadPro-Regular';}
	.st6{font-size:13.4235px;}
	.st7{font-family:'HighTowerText-Reg';}
	.st8{font-size:13.42px;}
	.st9{font-family:'Algerian';}
	.st10{font-family:'ROGFonts-Regular';}
	.st11{font-family:'ArialRoundedMTBold';}
	.st12{fill:#FFFFFF;}
</style>
<path class="st0" d="M396.73,436.3c-12.89,16.24-33.05,26.45-55.55,25.73c-34.74-1.11-63.55-29-65.7-63.68
	c-2.46-39.56,28.9-72.4,67.93-72.4c20.61,0,39.08,9.16,51.56,23.63"/>
<path class="st1" d="M482.49,409.01"/>
<polygon class="st2" points="382.81,347.29 395.38,337.03 400.62,354.97 "/>
<polyline class="st0" points="159.42,462.06 57.19,394 159.42,325.94 "/>
<polyline class="st0" points="453.58,325.94 555.81,394 453.58,462.06 "/>
<line class="st0" x1="254.2" y1="303.77" x2="180.56" y2="488.23"/>
<circle class="st3" cx="341.77" cy="393.28" r="2.66"/>
<text transform="matrix(1 0 0 1 335.7383 347.0059)" class="st4 st5 st6">{ }</text>
<text transform="matrix(1 0 0 1 340.1252 451.2393)"><tspan x="0" y="0" class="st4 st7 st8">?</tspan><tspan x="5.21" y="0" class="st4 st9 st8"> </tspan></text>
<text transform="matrix(1 0 0 1 286.2776 396.3172)" class="st3 st10 st8">;</text>
<text transform="matrix(1 0 0 1 396.7268 395.9409)" class="st4 st11 st8">!</text>
<path class="st12" d="M341.6,393.28c1.07,5.39,2.14,10.79,3.21,16.18c-0.74,6.26-1.48,12.51-2.22,18.77
	c-1.05-6.36-2.09-12.72-3.14-19.08"/>
<path class="st12" d="M339.45,393.64c8.58-0.74,17.16-1.49,25.74-2.23c9.95,0.52,19.91,1.03,29.86,1.55
	c-10.12,0.73-20.24,1.46-30.37,2.19"/>
<path class="st12" d="M292.22,393.47c7.65-0.42,15.29-0.84,22.94-1.26c8.87,0.29,17.74,0.58,26.61,0.87
	c-9.02,0.41-18.04,0.82-27.06,1.24"/>
</svg>
